{"glyphs":{"1":{"ha":792,"x_min":114,"x_max":689,"o":"m 689 0 l 114 0 l 114 54 q 298 179 326 49 l 298 749 q 146 825 326 836 l 146 884 q 423 966 336 884 l 510 966 l 510 179 q 689 54 483 49 l 689 0 z "},"2":{"ha":792,"x_min":49,"x_max":705,"o":"m 651 369 l 705 369 l 684 0 l 49 0 q 71 119 49 98 q 331 456 168 282 q 472 722 483 602 q 309 901 461 890 q 130 776 184 895 l 136 776 q 190 787 157 792 q 282 694 277 781 q 179 581 277 586 q 60 711 65 586 q 380 971 76 949 q 689 705 678 955 q 450 407 689 548 q 179 190 266 293 l 434 190 q 651 369 646 179 z "},"3":{"ha":792,"x_min":33,"x_max":716,"o":"m 146 814 l 152 808 q 195 819 174 819 q 293 727 282 808 q 179 618 288 618 q 71 738 76 629 q 369 971 87 949 q 694 727 673 949 q 461 505 684 537 l 461 499 q 716 271 711 483 q 336 -16 684 5 q 33 212 49 -5 q 157 347 49 331 q 266 244 255 342 q 168 141 260 146 q 109 157 130 141 q 293 49 130 54 q 483 266 477 54 q 347 467 472 450 q 298 461 331 467 q 260 456 271 456 q 212 494 212 461 q 266 526 217 526 q 326 526 298 526 q 472 716 461 543 q 315 901 461 890 q 146 814 201 906 z "},"-":{"ha":830,"x_min":92,"x_max":743,"o":"m 743 255 l 92 255 l 92 396 l 743 396 l 743 255 z "},"一":{"ha":1389,"x_min":103,"x_max":1335,"o":"m 103 602 l 1053 602 l 1134 700 l 1335 543 l 1286 456 l 136 456 l 103 602 z "},"七":{"ha":1389,"x_min":65,"x_max":1345,"o":"m 819 71 l 993 71 q 1085 141 1063 71 q 1128 309 1112 228 l 1210 293 q 1275 103 1177 103 q 1090 -98 1242 -109 l 749 -98 q 521 87 521 -98 l 521 526 l 114 483 l 65 613 l 521 667 l 521 1090 l 738 1090 l 738 694 l 1123 738 l 1172 814 l 1345 694 l 1313 624 l 738 553 l 738 157 q 819 71 732 65 z "},"三":{"ha":1389,"x_min":60,"x_max":1362,"o":"m 60 103 l 1069 103 l 1156 222 l 1362 60 l 1313 -38 l 92 -38 l 60 103 m 184 971 l 977 971 l 1053 1085 l 1259 911 l 1215 836 l 217 836 l 184 971 m 260 548 l 933 548 l 1004 646 l 1177 499 l 1128 412 l 298 412 l 260 548 z "},"上":{"ha":1389,"x_min":76,"x_max":1351,"o":"m 76 71 l 553 71 l 553 1096 l 765 1096 l 765 738 l 1015 738 l 1069 814 l 1237 673 l 1199 608 l 765 608 l 765 71 l 1085 71 l 1156 168 l 1351 0 l 1308 -71 l 125 -71 l 76 71 z "},"中":{"ha":1389,"x_min":136,"x_max":1313,"o":"m 136 895 l 331 895 l 331 852 l 597 852 l 597 1123 l 798 1123 l 798 852 l 1053 852 l 1118 933 l 1313 798 l 1259 727 l 1259 255 l 1063 255 l 1063 315 l 798 315 l 798 -152 l 597 -152 l 597 315 l 331 315 l 331 255 l 136 255 l 136 895 m 798 722 l 798 445 l 1063 445 l 1063 722 l 798 722 m 331 722 l 331 445 l 597 445 l 597 722 l 331 722 z "},"九":{"ha":1389,"x_min":71,"x_max":1345,"o":"m 136 781 l 461 798 l 461 819 l 461 1128 l 662 1128 l 662 836 l 662 808 l 852 819 l 933 895 l 1118 781 l 1042 678 q 1015 157 1015 315 q 1080 81 1009 76 l 1112 81 q 1172 125 1156 76 q 1226 271 1204 190 l 1291 255 q 1345 76 1253 81 q 1177 -92 1297 -114 l 998 -92 q 819 92 814 -92 q 846 684 836 472 l 656 678 q 130 -114 635 141 l 71 -60 q 456 667 439 255 l 174 651 l 136 781 z "},"二":{"ha":1389,"x_min":76,"x_max":1340,"o":"m 76 195 l 1047 195 l 1139 298 l 1340 141 l 1291 54 l 109 54 l 76 195 m 195 939 l 933 939 l 1020 1042 l 1215 879 l 1166 803 l 228 803 l 195 939 z "},"五":{"ha":1389,"x_min":65,"x_max":1362,"o":"m 146 1020 l 1047 1020 l 1101 1101 l 1280 982 l 1226 895 l 722 895 l 673 618 l 901 618 l 949 700 l 1161 575 l 1101 488 l 1101 81 l 1123 81 l 1183 179 l 1362 43 l 1308 -49 l 92 -49 l 65 81 l 369 81 l 445 494 l 250 494 l 222 618 l 467 618 l 515 895 l 179 895 l 146 1020 m 651 494 l 575 81 l 906 81 l 906 494 l 651 494 z "},"元":{"ha":1389,"x_min":71,"x_max":1345,"o":"m 71 -81 q 401 521 418 163 l 401 564 l 114 564 l 81 689 l 1074 689 l 1150 781 l 1335 646 l 1297 564 l 955 564 l 955 152 q 1020 81 955 81 l 1096 81 q 1166 141 1145 81 q 1210 282 1177 174 l 1275 271 q 1345 87 1253 92 q 1166 -109 1308 -130 l 928 -109 q 754 87 754 -109 l 754 564 l 602 564 l 602 515 q 136 -146 618 71 l 71 -81 m 244 1031 l 939 1031 l 1015 1107 l 1172 971 l 1134 906 l 277 906 l 244 1031 z "},"八":{"ha":1389,"x_min":49,"x_max":1367,"o":"m 1150 -103 q 716 1047 814 233 l 830 1080 q 1367 114 1009 353 q 1150 -103 1242 38 m 391 917 l 597 873 q 119 -109 510 184 l 49 -49 q 391 917 342 315 z "},"公":{"ha":1389,"x_min":71,"x_max":1362,"o":"m 863 353 q 1177 114 1063 217 q 1188 43 1210 92 q 1085 -119 1156 -38 q 1015 -114 1042 -168 q 955 16 987 -49 q 222 -87 608 -43 l 179 125 q 336 206 277 141 q 570 656 477 401 l 787 564 q 450 125 629 298 q 884 141 597 130 q 792 288 841 217 l 863 353 m 830 1107 q 1362 543 1036 716 q 1156 358 1248 477 q 732 1069 868 629 l 830 1107 m 71 423 q 412 1058 304 700 l 624 966 q 141 363 434 608 l 71 423 z "},"农":{"ha":1389,"x_min":43,"x_max":1362,"o":"m 363 987 q 369 966 363 982 q 369 939 369 949 l 575 939 q 613 1134 597 1031 l 830 1112 q 787 939 814 1020 l 1080 939 l 1150 1009 l 1324 852 l 1264 808 q 1161 684 1226 760 q 1101 613 1123 635 l 1025 635 q 1080 808 1063 743 l 760 808 q 928 445 814 608 q 998 559 955 483 q 1042 629 1025 608 l 1188 510 q 987 363 1085 439 q 1362 54 1134 190 q 1139 -81 1242 5 q 684 684 770 201 q 613 559 651 618 l 613 87 q 673 114 629 92 q 803 174 770 157 l 819 71 q 705 -11 781 43 q 467 -190 537 -125 l 358 -33 q 423 92 423 22 l 423 336 q 109 103 277 206 l 43 174 q 532 808 369 401 l 363 808 q 353 651 363 727 q 304 618 347 618 q 163 667 244 635 q 157 705 141 684 q 277 1004 233 814 l 363 987 z "},"冬":{"ha":1389,"x_min":60,"x_max":1362,"o":"m 1215 298 q 732 494 939 363 q 109 288 488 342 l 60 369 q 597 597 385 450 q 450 776 515 678 q 222 548 342 640 l 146 597 q 429 1139 326 825 l 629 1074 q 613 1042 624 1063 q 586 987 608 1025 l 873 987 l 955 1069 l 1145 917 q 1145 895 1156 906 l 1069 852 q 868 597 987 705 q 1362 494 1063 515 q 1215 298 1286 423 m 423 228 q 960 49 738 152 q 998 -11 1004 33 q 960 -163 987 -87 q 895 -168 944 -212 q 380 157 656 16 l 423 228 m 591 412 q 917 315 825 353 q 949 255 960 298 q 917 141 939 201 q 852 141 901 98 q 553 347 700 266 l 591 412 m 515 863 q 705 684 586 765 q 841 863 792 765 l 515 863 z "},"初":{"ha":1389,"x_min":60,"x_max":1351,"o":"m 640 977 l 1096 977 l 1166 1063 l 1351 911 l 1297 846 l 1297 494 q 1270 49 1302 184 q 1031 -114 1237 -109 q 901 -11 1042 -11 l 890 76 q 1085 130 1090 60 q 1107 494 1107 260 l 1107 852 l 982 852 l 982 732 q 553 -146 998 98 l 477 -87 q 792 765 803 157 l 792 852 l 667 852 l 640 977 m 92 863 l 412 863 l 477 933 l 635 798 l 575 738 q 461 532 526 629 l 461 439 q 591 629 526 532 l 711 521 q 553 407 635 467 q 667 336 613 374 q 684 277 700 315 q 635 190 673 239 q 608 168 613 168 q 581 195 597 168 q 461 347 515 293 l 461 -136 l 282 -136 l 282 326 q 141 201 206 260 l 60 255 q 380 738 255 434 l 119 738 l 92 863 m 277 1156 q 418 1031 363 1096 q 418 966 450 1004 q 342 895 380 922 q 282 917 298 863 q 212 1118 260 1020 l 277 1156 z "},"十":{"ha":1389,"x_min":87,"x_max":1345,"o":"m 591 1107 l 808 1107 l 808 629 l 1080 629 l 1156 732 l 1345 575 l 1297 494 l 808 494 l 808 -141 l 591 -141 l 591 494 l 114 494 l 87 629 l 591 629 l 591 1107 z "},"午":{"ha":1389,"x_min":65,"x_max":1345,"o":"m 125 602 q 363 1156 309 873 l 591 1080 q 564 1025 581 1063 q 515 944 548 1009 l 977 944 l 1053 1020 l 1210 879 l 1172 819 l 819 819 l 819 488 l 1085 488 l 1161 581 l 1345 445 l 1308 363 l 819 363 l 819 -157 l 613 -157 l 613 363 l 98 363 l 65 488 l 613 488 l 613 819 l 434 819 q 212 548 342 678 l 125 602 z "},"历":{"ha":1389,"x_min":43,"x_max":1340,"o":"m 656 846 l 852 846 l 852 651 l 852 640 l 1004 640 l 1074 732 l 1275 608 l 1215 521 q 1199 60 1215 347 q 960 -141 1204 -125 q 798 -22 966 -33 l 787 54 q 933 54 863 49 q 1009 141 1004 60 q 1020 515 1020 315 l 846 515 q 401 -146 808 103 l 331 -81 q 651 515 624 201 l 483 515 l 456 640 l 656 640 l 656 651 l 656 846 m 43 -98 q 184 233 152 87 q 217 640 217 380 l 217 1058 l 412 1058 l 412 1020 l 1107 1020 l 1177 1101 l 1340 966 l 1297 895 l 412 895 l 412 646 q 114 -136 429 146 l 43 -98 z "},"四":{"ha":1389,"x_min":141,"x_max":1313,"o":"m 141 1025 l 326 1025 l 326 998 l 1063 998 l 1112 1069 l 1313 955 l 1264 884 l 1264 -76 l 1074 -76 l 1074 11 l 326 11 l 326 -81 l 141 -81 l 141 1025 m 342 244 q 467 624 472 401 l 467 868 l 326 868 l 326 141 l 1074 141 l 1074 260 l 911 260 q 732 434 716 244 l 732 868 l 646 868 l 646 602 q 412 195 640 347 l 342 244 m 911 477 q 960 412 906 407 l 1074 412 l 1074 868 l 911 868 l 911 477 z "},"夕":{"ha":1389,"x_min":152,"x_max":1259,"o":"m 575 608 q 819 396 727 499 q 960 732 917 543 l 591 732 q 277 358 445 499 l 190 407 q 532 1128 429 743 l 765 1053 q 754 1025 760 1042 q 673 868 727 960 l 971 868 l 1025 955 l 1259 808 l 1199 732 q 195 -157 1015 -16 l 152 -60 q 673 228 477 49 q 488 543 581 418 l 575 608 z "},"宵":{"ha":1389,"x_min":65,"x_max":1362,"o":"m 613 836 l 803 836 l 803 591 l 960 591 l 1009 662 l 1204 553 l 1156 483 l 1156 38 q 944 -152 1183 -152 q 836 -71 944 -60 l 825 16 q 966 65 987 11 l 966 92 l 450 92 l 450 -130 l 260 -130 l 260 624 l 450 624 l 450 591 l 613 591 l 613 836 m 266 1031 q 271 1015 266 1025 q 271 998 271 1004 l 646 998 q 591 1074 629 1025 q 570 1107 575 1096 l 635 1166 q 819 1074 743 1128 q 836 1015 857 1058 l 825 998 l 1128 998 l 1183 1063 l 1362 939 l 1291 873 q 1248 814 1275 852 q 1183 716 1204 749 l 1096 738 q 1128 873 1112 798 l 288 873 q 293 792 288 836 q 250 727 298 732 q 130 727 190 722 q 98 792 65 727 q 168 1036 146 911 l 266 1031 m 450 282 l 450 206 l 966 206 l 966 282 l 450 282 m 450 472 l 450 396 l 966 396 l 966 472 l 450 472 m 830 640 q 955 857 895 732 l 1096 765 q 890 608 971 651 l 830 640 m 396 836 q 553 754 477 803 q 570 700 591 738 q 510 618 543 651 q 477 597 488 597 q 456 624 467 597 q 336 787 401 716 l 396 836 z "},"巳":{"ha":1389,"x_min":206,"x_max":1297,"o":"m 483 76 l 977 76 q 1128 277 1080 60 l 1232 255 q 1297 92 1199 103 q 1063 -87 1237 -98 l 380 -87 q 206 92 206 -87 l 206 1058 l 407 1058 l 407 1015 l 922 1015 l 971 1101 l 1188 982 l 1139 901 l 1139 429 l 939 429 l 939 467 l 407 467 l 407 152 q 483 76 407 76 m 407 879 l 407 602 l 939 602 l 939 879 l 407 879 z "},"廿":{"ha":1389,"x_min":76,"x_max":1351,"o":"m 825 1112 l 1025 1112 l 1025 765 l 1090 765 l 1166 852 l 1351 711 l 1313 629 l 1025 629 l 1025 -125 l 825 -125 l 825 38 l 543 38 l 543 -125 l 342 -125 l 342 629 l 109 629 l 76 765 l 342 765 l 342 1112 l 543 1112 l 543 765 l 825 765 l 825 1112 m 543 629 l 543 174 l 825 174 l 825 629 l 543 629 z "},"或":{"ha":1389,"x_min":71,"x_max":1362,"o":"m 586 -71 q 830 201 727 54 q 722 781 738 445 l 136 781 l 109 906 l 722 906 l 722 922 l 722 1128 l 895 1128 l 895 906 l 1112 906 l 1177 977 l 1324 852 l 1286 781 l 895 781 q 949 396 901 559 q 1058 684 1020 537 l 1248 608 q 1025 206 1156 385 q 1150 92 1085 98 q 1204 136 1183 92 q 1242 228 1221 168 l 1318 195 q 1362 22 1280 49 q 1177 -141 1297 -141 q 901 60 1025 -136 q 667 -141 798 -43 l 586 -71 m 179 694 l 336 694 l 336 667 l 494 667 l 543 716 l 684 629 q 684 597 711 618 l 646 553 l 646 244 l 488 244 l 488 277 l 336 277 l 336 228 l 179 228 l 179 694 m 71 114 q 705 195 320 136 l 727 98 q 125 -81 347 -27 l 71 114 m 336 559 l 336 385 l 488 385 l 488 559 l 336 559 m 971 1118 q 1123 1063 1063 1096 q 1139 1025 1150 1053 q 1134 1020 1139 1025 q 1096 939 1112 955 q 1047 939 1074 906 q 944 1074 993 1020 l 971 1118 z "},"日":{"ha":1389,"x_min":293,"x_max":1210,"o":"m 293 1074 l 488 1074 l 488 1020 l 949 1020 l 993 1096 l 1210 987 l 1161 895 l 1161 -125 l 966 -125 l 966 -33 l 488 -33 l 488 -130 l 293 -130 l 293 1074 m 488 450 l 488 109 l 966 109 l 966 450 l 488 450 m 488 884 l 488 586 l 966 586 l 966 884 l 488 884 z "},"明":{"ha":1389,"x_min":119,"x_max":1329,"o":"m 694 1101 l 879 1101 l 879 1069 l 1080 1069 l 1145 1139 l 1329 1025 l 1270 949 l 1270 16 q 1058 -146 1291 -141 q 971 -54 1058 -71 q 939 -49 949 -49 l 928 33 q 1085 92 1112 16 l 1085 342 l 857 342 q 543 -163 803 22 l 467 -103 q 694 553 700 141 l 694 1101 m 119 1069 l 288 1069 l 288 1036 l 429 1036 l 483 1101 l 646 982 l 591 928 l 591 119 l 423 119 l 423 190 l 288 190 l 288 98 l 119 98 l 119 1069 m 879 553 q 873 505 879 537 q 873 461 873 472 l 1085 461 l 1085 646 l 879 646 l 879 553 m 879 949 l 879 765 l 1085 765 l 1085 949 l 879 949 m 288 553 l 288 309 l 423 309 l 423 553 l 288 553 m 288 917 l 288 673 l 423 673 l 423 917 l 288 917 z "},"春":{"ha":1389,"x_min":33,"x_max":1378,"o":"m 33 250 q 363 526 233 374 l 98 526 l 71 640 l 445 640 q 461 667 450 651 q 494 722 483 700 l 222 722 l 195 836 l 537 836 q 559 917 553 868 l 174 917 l 146 1031 l 581 1031 q 586 1134 586 1080 l 787 1134 q 781 1031 787 1080 l 1036 1031 l 1096 1101 l 1253 987 l 1204 917 l 765 917 q 749 863 760 895 q 743 836 743 841 l 993 836 l 1047 901 l 1194 787 l 1156 722 l 705 722 q 694 700 700 711 q 662 640 684 673 l 1118 640 l 1177 716 l 1335 597 l 1291 526 l 977 526 q 1378 369 1134 407 q 1259 168 1302 282 q 1069 260 1156 206 l 1069 -157 l 884 -157 l 884 -103 l 505 -103 l 505 -157 l 320 -157 l 320 288 q 87 168 217 222 l 33 250 m 505 412 l 868 412 l 879 423 q 836 477 868 439 q 803 526 814 510 l 586 526 q 505 434 548 477 l 505 412 m 505 298 l 505 212 l 884 212 l 884 298 l 505 298 m 505 98 l 505 16 l 884 16 l 884 98 l 505 98 z "},"月":{"ha":1389,"x_min":81,"x_max":1183,"o":"m 288 1107 l 488 1107 l 488 1053 l 922 1053 l 987 1123 l 1183 1004 l 1134 933 l 1134 38 q 879 -141 1156 -125 q 722 -22 873 -38 l 716 65 q 873 60 765 60 q 933 114 939 60 l 933 320 l 461 320 q 163 -157 418 38 l 81 -92 q 288 727 298 146 l 288 1107 m 488 629 q 477 445 488 532 l 933 445 l 933 629 l 488 629 m 488 928 l 488 754 l 933 754 l 933 928 l 488 928 z "},"正":{"ha":1389,"x_min":65,"x_max":1345,"o":"m 152 1015 l 1047 1015 l 1123 1101 l 1297 955 l 1253 890 l 852 890 l 852 581 l 1020 581 l 1080 662 l 1237 526 l 1194 450 l 852 450 l 852 54 l 1090 54 l 1166 157 l 1345 5 l 1302 -76 l 98 -76 l 65 54 l 271 54 l 271 700 l 467 700 l 467 54 l 651 54 l 651 890 l 179 890 l 152 1015 z "},"清":{"ha":1389,"x_min":38,"x_max":1345,"o":"m 445 1009 l 754 1009 l 754 1128 l 944 1128 l 944 1009 l 1112 1009 l 1145 1063 l 1275 977 l 1226 901 l 944 901 l 944 836 l 1101 836 l 1134 884 l 1248 803 l 1204 732 l 944 732 l 944 662 l 1172 662 l 1210 727 l 1345 629 l 1297 553 l 1080 553 l 1264 456 l 1226 396 l 1226 -22 q 1020 -157 1237 -163 q 922 -76 1031 -76 l 911 5 q 1047 43 1063 -11 l 1047 49 l 678 49 l 678 -152 l 499 -152 l 499 510 l 678 510 l 678 488 l 1036 488 l 1074 553 l 396 553 l 369 662 l 754 662 l 754 732 l 515 732 l 494 836 l 754 836 l 754 901 l 472 901 l 445 1009 m 49 244 q 201 282 168 228 q 326 553 250 380 l 418 510 q 401 467 369 358 q 331 239 369 358 q 331 -49 282 103 q 288 -125 347 -114 q 179 -125 239 -136 q 130 -65 119 -130 q 146 43 141 -33 q 152 71 152 60 q 54 146 179 146 l 49 244 m 92 776 q 293 700 201 743 q 315 646 331 684 q 277 553 309 608 q 260 526 266 537 q 201 521 233 488 q 157 575 184 543 q 38 716 92 667 l 92 776 m 163 1107 q 374 1036 277 1080 q 391 993 401 1025 q 342 863 380 933 q 288 857 320 825 q 114 1042 195 966 l 163 1107 m 678 217 l 678 146 l 1047 146 l 1047 217 l 678 217 m 678 385 l 678 315 l 1047 315 l 1047 385 l 678 385 z "},"秋":{"ha":1389,"x_min":38,"x_max":1378,"o":"m 543 537 q 689 358 613 477 q 684 298 716 331 q 602 228 651 255 q 548 260 559 195 q 483 499 526 380 l 483 -152 l 304 -152 l 304 385 q 114 87 222 206 l 38 125 q 228 613 174 374 l 114 613 l 81 738 l 304 738 l 304 928 q 119 922 206 922 l 98 1009 q 570 1118 391 1053 l 646 960 q 483 939 564 944 l 483 738 l 521 738 l 553 803 l 673 700 l 618 613 l 483 613 l 483 505 l 543 537 m 1188 -157 q 971 271 1036 33 q 597 -168 868 -5 l 521 -114 q 852 694 863 190 l 852 1128 l 1042 1128 l 1042 694 q 1031 548 1042 613 q 1378 16 1134 195 q 1188 -157 1280 -60 m 1139 879 l 1324 808 q 1128 494 1226 613 l 1047 515 q 1139 879 1101 667 m 798 857 q 803 515 808 646 q 765 472 803 477 q 656 467 716 467 q 624 477 629 467 q 629 521 618 494 q 716 873 678 624 l 798 857 z "},"端":{"ha":1389,"x_min":49,"x_max":1362,"o":"m 570 450 l 716 450 l 716 429 l 814 429 q 830 526 825 477 l 564 526 l 543 640 l 1194 640 l 1232 700 l 1362 608 l 1318 526 l 993 526 q 960 467 982 505 q 939 429 944 439 l 1161 429 l 1204 483 l 1351 391 l 1308 331 l 1308 11 q 1134 -157 1329 -152 q 1047 -81 1134 -76 l 1042 -38 l 966 -38 l 966 320 l 906 320 l 906 -81 l 776 -81 l 776 320 l 716 320 l 716 -141 l 570 -141 l 570 450 m 863 1123 l 1015 1123 l 1015 841 l 1134 841 l 1134 1069 l 1280 1069 l 1280 711 l 1134 711 l 1134 732 l 738 732 l 705 684 l 553 770 q 597 873 602 825 l 597 1069 l 743 1069 l 743 841 l 863 841 l 863 1123 m 49 179 q 255 201 109 184 q 298 206 282 206 q 374 716 353 456 l 537 684 q 401 222 477 445 q 472 239 423 228 q 532 250 510 244 l 553 157 q 92 -11 336 71 l 49 179 m 206 1101 q 391 1004 315 1058 q 401 955 418 982 q 353 868 391 933 q 347 857 347 863 l 418 857 l 461 922 l 581 819 l 532 743 l 81 743 l 60 857 l 277 857 q 157 1053 206 987 l 206 1101 m 163 694 q 298 363 239 543 q 288 309 309 331 q 201 244 244 266 q 163 266 168 233 q 98 667 141 472 l 163 694 m 1118 -11 q 1161 33 1161 -11 l 1161 320 l 1096 320 l 1096 -11 l 1118 -11 z "},"至":{"ha":1389,"x_min":81,"x_max":1340,"o":"m 494 678 q 922 689 711 678 q 911 705 917 694 q 852 781 890 732 l 911 841 q 1177 673 1101 738 q 1188 597 1215 646 q 1112 477 1145 510 q 1053 483 1080 434 q 1025 532 1042 499 q 993 581 1004 564 q 798 553 895 564 l 798 347 l 1036 347 l 1085 418 l 1242 298 l 1194 222 l 798 222 l 798 22 l 1134 22 l 1183 92 l 1340 -33 l 1297 -114 l 109 -114 l 81 22 l 597 22 l 597 222 l 217 222 l 190 347 l 597 347 l 597 532 q 271 499 488 515 q 244 494 418 510 l 201 673 q 363 738 304 684 q 494 911 439 808 l 141 911 l 114 1036 l 1101 1036 l 1161 1112 l 1329 982 l 1286 911 l 732 911 q 494 678 618 776 z "},"节":{"ha":1389,"x_min":54,"x_max":1345,"o":"m 201 618 l 987 618 l 1042 694 l 1237 559 l 1183 505 l 1183 212 q 971 11 1194 22 q 830 109 960 92 l 819 184 q 939 179 857 179 q 998 239 998 179 l 998 494 l 711 494 l 711 -152 l 526 -152 l 526 494 l 222 494 l 201 618 m 808 1128 l 993 1128 l 993 944 l 1161 944 l 1199 1009 l 1345 895 l 1302 819 l 993 819 l 993 684 l 808 684 l 808 819 l 602 819 l 602 689 l 418 689 l 418 819 l 87 819 l 54 944 l 418 944 l 418 1128 l 602 1128 l 602 944 l 808 944 l 808 1128 z "},"重":{"ha":1389,"x_min":76,"x_max":1335,"o":"m 179 174 l 608 174 l 608 250 l 423 250 l 423 222 l 244 222 l 244 716 l 423 716 l 423 689 l 608 689 l 608 765 l 98 765 l 76 873 l 608 873 l 608 939 q 212 933 385 933 l 195 1025 q 1085 1128 716 1058 l 1194 960 q 922 949 1107 955 q 787 944 830 944 l 787 873 l 1139 873 l 1188 939 l 1335 830 l 1297 765 l 787 765 l 787 689 l 960 689 l 1015 749 l 1194 646 l 1150 581 l 1150 222 l 1090 222 l 1204 136 l 1166 71 l 787 71 l 787 -5 l 1134 -5 l 1194 76 l 1335 -43 l 1286 -114 l 103 -114 l 76 -5 l 608 -5 l 608 71 l 201 71 l 179 174 m 787 174 l 1020 174 l 1058 222 l 971 222 l 971 250 l 787 250 l 787 174 m 787 423 l 787 353 l 971 353 l 971 423 l 787 423 m 787 586 l 787 521 l 971 521 l 971 586 l 787 586 m 423 586 l 423 521 l 608 521 l 608 586 l 423 586 m 423 423 l 423 353 l 608 353 l 608 423 l 423 423 z "},"阳":{"ha":1389,"x_min":130,"x_max":1313,"o":"m 130 1085 l 309 1085 l 309 1047 l 429 1047 l 477 1107 l 646 987 l 656 977 l 656 1063 l 830 1063 l 830 1020 l 1074 1020 l 1128 1090 l 1313 977 l 1264 901 l 1264 -114 l 1085 -114 l 1085 0 l 830 0 l 830 -125 l 656 -125 l 656 960 q 646 949 656 960 l 586 906 l 456 640 q 613 353 608 510 q 396 114 618 130 q 309 201 380 190 l 309 -152 l 130 -152 l 130 1085 m 830 450 l 830 125 l 1085 125 l 1085 450 l 830 450 m 830 895 l 830 575 l 1085 575 l 1085 895 l 830 895 m 439 358 q 336 624 445 477 l 407 928 l 309 928 l 309 288 q 439 358 450 277 z "},"除":{"ha":1389,"x_min":119,"x_max":1383,"o":"m 559 445 l 819 445 l 819 581 l 689 581 l 673 640 q 629 608 656 629 q 553 553 581 570 l 483 618 q 841 1145 738 857 l 1036 1074 q 1020 1047 1031 1063 q 1004 1015 1009 1025 q 1383 743 1172 825 q 1248 553 1318 684 q 939 922 1042 722 q 738 694 863 808 l 982 694 l 1020 749 l 1145 640 l 1107 581 l 1004 581 l 1004 445 l 1112 445 l 1166 515 l 1302 396 l 1253 326 l 1004 326 l 1004 0 q 808 -163 1025 -136 q 684 -60 814 -76 l 673 22 q 819 65 836 -5 l 819 326 l 586 326 l 559 445 m 119 1096 l 282 1096 l 282 1058 l 407 1058 l 456 1118 l 613 998 q 613 960 640 977 l 548 906 l 412 656 q 553 385 548 543 q 347 141 559 168 q 282 222 342 206 l 282 -152 l 119 -152 l 119 1096 m 456 -43 q 613 288 559 114 l 781 217 q 521 -87 667 38 l 456 -43 m 1085 271 q 1302 109 1204 195 q 1308 49 1324 81 q 1226 -65 1264 -27 q 1166 -54 1188 -103 q 1025 222 1118 71 l 1085 271 m 391 385 q 298 646 396 510 l 380 939 l 282 939 l 282 315 q 391 385 396 309 z "}}}
